# xmcd
#
# Track frame offsets: 
#        150
#        15112
#        35282
#        48397
#        61284
#        73884
#        86088
#        99889
#        114186
#        125303
#        138215
#        152387
#        164159
#        177412
#        191155
#        204320
#        222541
#        236027
#
# Disc length: 3307 seconds
#
# Revision: 1
# Processed by: cddbd v1.5.2PL0 Copyright (c) Steve Scherf et al.
# Submitted via: ExactAudioCopy v1.3
#
DISCID=f30ce912
DTITLE=Various Artist - An Illustrated History of the Blues
DYEAR=2004
DGENRE=Blues
TTITLE0=Billie Holiday - Georgia on My Mind
TTITLE1=Muddy Waters - Baby Please Don't Go
TTITLE2=Fats Waller - Everybody Loves My Baby
TTITLE3=Robert Johnson - Kind Hearted Woman Blues
TTITLE4=Sonny Boy Williamson - Early in the Morning
TTITLE5=Ma Rainey - Prove It on Me
TTITLE6=Ray Charles - Baby Let Me Hold Your Hand
TTITLE7=Memphis Minnie - When Love Breaks
TTITLE8=Big Joe Turner - Blues in the Night
TTITLE9=Dinah Washington - All or Nothing
TTITLE10=Blind Willie McTell - Cold Winter's Day
TTITLE11=Ray Charles - CC Rider
TTITLE12=Leadbelly - Rock Island Line
TTITLE13=Big Bill Broonzy - Key to the Highway
TTITLE14=Billie Holiday - Must Have That Man
TTITLE15=Muddy Waters - Got My Mojo Working
TTITLE16=Bessie Smith - Nobody Knows You When You're Down and Out
TTITLE17=Robert Johnson - Cross Road Blues
EXTD=
EXTT0=
EXTT1=
EXTT2=
EXTT3=
EXTT4=
EXTT5=
EXTT6=
EXTT7=
EXTT8=
EXTT9=
EXTT10=
EXTT11=
EXTT12=
EXTT13=
EXTT14=
EXTT15=
EXTT16=
EXTT17=
PLAYORDER=
